<svg xmlns="http://www.w3.org/2000/svg" viewBox="0 0 1024 1024">
  <defs>
    <linearGradient id="bg" x1="120" y1="96" x2="904" y2="928" gradientUnits="userSpaceOnUse">
      <stop offset="0" stop-color="#fbfbf8"/>
      <stop offset="1" stop-color="#edf1f5"/>
    </linearGradient>
    <linearGradient id="activeRow" x1="132" y1="458" x2="824" y2="586" gradientUnits="userSpaceOnUse">
      <stop offset="0" stop-color="#f3f7ff"/>
      <stop offset="1" stop-color="#ebf1fb"/>
    </linearGradient>
    <filter id="shadow" x="-20%" y="-20%" width="140%" height="140%">
      <feDropShadow dx="0" dy="16" stdDeviation="22" flood-color="#1f2631" flood-opacity="0.10"/>
    </filter>
  </defs>

  <rect x="64" y="64" width="896" height="896" rx="248" fill="url(#bg)"/>
  <rect x="64" y="64" width="896" height="896" rx="248" fill="none" stroke="#ffffff" stroke-width="3"/>

  <g filter="url(#shadow)">
    <rect x="166" y="288" width="692" height="112" rx="34" fill="#e7ebf0"/>
    <rect x="132" y="456" width="760" height="144" rx="40" fill="url(#activeRow)"/>
    <rect x="132" y="456" width="20" height="144" rx="10" fill="#1677ff"/>
    <rect x="166" y="656" width="692" height="112" rx="34" fill="#e7ebf0"/>
  </g>

  <circle cx="220" cy="528" r="18" fill="#34c759"/>
  <rect x="266" y="500" width="184" height="56" rx="28" fill="#262d38" opacity="0.94"/>
  <rect x="484" y="508" width="138" height="40" rx="20" fill="#b7c0cd"/>
  <rect x="706" y="482" width="134" height="92" rx="30" fill="#1677ff"/>

  <rect x="208" y="324" width="132" height="40" rx="20" fill="#c5cdd8"/>
  <rect x="376" y="324" width="210" height="40" rx="20" fill="#d7dde6"/>
  <rect x="208" y="692" width="160" height="40" rx="20" fill="#c5cdd8"/>
  <rect x="404" y="692" width="184" height="40" rx="20" fill="#d7dde6"/>
</svg>
